{
 "accessors": [
  {
   "componentType": 5126,
   "type": "VEC3",
   "count": 2060,
   "max": [
    42.650001525878906,
    -14.604999542236328,
    4
   ],
   "min": [
    15.890000343322754,
    -56.35599899291992,
    0
   ],
   "bufferView": 0
  },
  {
   "componentType": 5126,
   "type": "VEC3",
   "count": 2060,
   "bufferView": 1
  },
  {
   "componentType": 5123,
   "type": "SCALAR",
   "count": 5028,
   "bufferView": 2
  }
 ],
 "asset": {
  "version": "2.0",
  "generator": "clara.io"
 },
 "bufferViews": [
  {
   "buffer": 0,
   "byteOffset": 0,
   "byteLength": 24720,
   "target": 34962,
   "byteStride": 12
  },
  {
   "buffer": 0,
   "byteOffset": 24720,
   "byteLength": 24720,
   "target": 34962,
   "byteStride": 12
  },
  {
   "buffer": 0,
   "byteOffset": 49440,
   "byteLength": 10056,
   "target": 34963
  }
 ],
 "buffers": [
  {
   "byteLength": 59496,
   "uri": "data:application/octet-stream;base64,"
  }
 ],
 "materials": [
  {
   "name": "group_0_undefinedMat",
   "pbrMetallicRoughness": {
    "baseColorFactor": [
     0.39215686274509803,
     0.6666666666666666,
     0.45098039215686275,
     1
    ],
    "roughnessFactor": 0.3015,
    "metallicFactor": 0
   }
  }
 ],
 "meshes": [
  {
   "primitives": [
    {
     "indices": 2,
     "material": 0,
     "mode": 4,
     "attributes": {
      "POSITION": 0,
      "NORMAL": 1
     }
    }
   ]
  }
 ],
 "nodes": [
  {
   "name": "tinker_root",
   "scale": [
    0.009999999776482582,
    0.009999999776482582,
    0.009999999776482582
   ],
   "children": [
    1
   ]
  },
  {
   "name": "group_0_undefined",
   "translation": [
    -1.0857000350952148,
    0,
    0
   ],
   "mesh": 0
  }
 ],
 "scene": 0,
 "scenes": [
  {
   "nodes": [
    0
   ]
  }
 ]
}